<svg width="16" height="19" viewBox="0 0 16 19" fill="none" xmlns="http://www.w3.org/2000/svg">
<path d="M9.06 1.28292C8.77875 1.00202 8.3975 0.844238 8 0.844238C7.6025 0.844238 7.22125 1.00202 6.94 1.28292L1.281 6.93892C0.999608 7.22031 0.841522 7.60197 0.841522 7.99992C0.841522 8.39787 0.999608 8.77952 1.281 9.06092C1.5624 9.34231 1.94405 9.5004 2.342 9.5004C2.73996 9.5004 3.12161 9.34231 3.403 9.06092L6.5 5.96492V17.4999C6.5 17.8977 6.65804 18.2793 6.93934 18.5606C7.22065 18.8419 7.60218 18.9999 8 18.9999C8.39783 18.9999 8.77936 18.8419 9.06066 18.5606C9.34197 18.2793 9.5 17.8977 9.5 17.4999V5.96492L12.596 9.06092C12.7353 9.20025 12.9007 9.31077 13.0828 9.38618C13.2648 9.46159 13.46 9.5004 13.657 9.5004C13.854 9.5004 14.0492 9.46159 14.2312 9.38618C14.4133 9.31077 14.5787 9.20025 14.718 9.06092C14.8573 8.92159 14.9679 8.75617 15.0433 8.57413C15.1187 8.39208 15.1575 8.19696 15.1575 7.99992C15.1575 7.80287 15.1187 7.60776 15.0433 7.42571C14.9679 7.24366 14.8573 7.07825 14.718 6.93892L9.06 1.28292Z" fill="#0288D1"/>
</svg>
