<svg width="35" height="35" viewBox="0 0 47 47" fill="none" xmlns="http://www.w3.org/2000/svg">
<path d="M10.0714 45.3214H20.1429M15.1072 45.3214V38.6071M1.67859 21.8214V35.25C1.67859 36.1404 2.03229 36.9943 2.66187 37.6239C3.29146 38.2534 4.14536 38.6071 5.03573 38.6071H25.1786C26.069 38.6071 26.9229 38.2534 27.5524 37.6239C28.182 36.9943 28.5357 36.1404 28.5357 35.25V21.8214C28.5357 20.9311 28.182 20.0772 27.5524 19.4476C26.9229 18.818 26.069 18.4643 25.1786 18.4643H5.03573C4.14536 18.4643 3.29146 18.818 2.66187 19.4476C2.03229 20.0772 1.67859 20.9311 1.67859 21.8214Z" stroke="black" stroke-linecap="round" stroke-linejoin="round"/>
<path d="M25.1786 11.75V10.0715C25.1786 9.62627 25.3554 9.19932 25.6702 8.88453C25.985 8.56973 26.412 8.39288 26.8572 8.39288H43.6429C44.0881 8.39288 44.515 8.56973 44.8298 8.88453C45.1446 9.19932 45.3215 9.62627 45.3215 10.0715V43.6429C45.3215 44.0881 45.1446 44.515 44.8298 44.8298C44.515 45.1446 44.0881 45.3215 43.6429 45.3215H30.2143" stroke="black" stroke-linecap="round" stroke-linejoin="round"/>
<path d="M35.25 23.5H45.3214M38.1875 16.3661C38.0762 16.3661 37.9695 16.3219 37.8908 16.2432C37.8121 16.1645 37.7679 16.0577 37.7679 15.9464C37.7679 15.8351 37.8121 15.7284 37.8908 15.6497C37.9695 15.571 38.0762 15.5268 38.1875 15.5268C38.2988 15.5268 38.4055 15.571 38.4842 15.6497C38.5629 15.7284 38.6071 15.8351 38.6071 15.9464C38.6071 16.0577 38.5629 16.1645 38.4842 16.2432C38.4055 16.3219 38.2988 16.3661 38.1875 16.3661Z" stroke="black" stroke-linecap="round" stroke-linejoin="round"/>
</svg>
