<svg width="38" height="38" viewBox="0 0 38 38" fill="none" xmlns="http://www.w3.org/2000/svg">
<path d="M4.75 18.9999C4.75 21.6235 10.4215 23.7499 17.4167 23.7499C17.9529 23.7499 18.4807 23.7378 19 23.7135" stroke="black" stroke-width="1.5" stroke-linecap="round" stroke-linejoin="round"/>
<path d="M30.0833 7.91663V18.2083M4.75 7.91663V30.0833C4.75 32.7069 10.4215 34.8333 17.4167 34.8333C17.9529 34.8333 18.4807 34.8212 19 34.7969" stroke="black" stroke-width="1.5" stroke-linecap="round" stroke-linejoin="round"/>
<path d="M17.4167 12.6666C24.4123 12.6666 30.0833 10.54 30.0833 7.91663C30.0833 5.29327 24.4123 3.16663 17.4167 3.16663C10.4211 3.16663 4.75 5.29327 4.75 7.91663C4.75 10.54 10.4211 12.6666 17.4167 12.6666Z" stroke="black" stroke-width="1.5" stroke-linecap="round" stroke-linejoin="round"/>
<path d="M11.0834 12.6666V15.8333M11.0834 23.75V26.9166M31.6461 22.1666L32.4378 25.4663L31.1236 24.6461C30.1579 23.911 28.9775 23.5133 27.7638 23.514C24.6731 23.514 22.1667 26.0474 22.1667 29.1745C22.1667 32.3 24.6731 34.8333 27.7638 34.8333C30.4713 34.8333 32.7307 32.889 33.25 30.305" stroke="black" stroke-width="1.5" stroke-linecap="round" stroke-linejoin="round"/>
</svg>
