<svg width="24" height="24" viewBox="0 0 24 24" fill="none" xmlns="http://www.w3.org/2000/svg">
<path fill-rule="evenodd" clip-rule="evenodd" d="M3 4H21C21.2652 4 21.5196 4.10536 21.7071 4.29289C21.8946 4.48043 22 4.73478 22 5V19C22 19.2652 21.8946 19.5196 21.7071 19.7071C21.5196 19.8946 21.2652 20 21 20H3C2.73478 20 2.48043 19.8946 2.29289 19.7071C2.10536 19.5196 2 19.2652 2 19V5C2 4.73478 2.10536 4.48043 2.29289 4.29289C2.48043 4.10536 2.73478 4 3 4ZM19.031 5.914L12.156 11.414C12.1117 11.4494 12.0567 11.4686 12 11.4686C11.9433 11.4686 11.8883 11.4494 11.844 11.414L4.969 5.914L4.031 7.086L10.907 12.586C11.2173 12.8341 11.6027 12.9693 12 12.9693C12.3973 12.9693 12.7827 12.8341 13.093 12.586L19.969 7.086L19.031 5.914Z" fill="#8FC555"/>
</svg>
