<svg width="26" height="25" viewBox="0 0 26 25" fill="none" xmlns="http://www.w3.org/2000/svg">
<path d="M12.5839 16.875C11.391 16.875 10.247 16.4141 9.40352 15.5936C8.56003 14.7731 8.08616 13.6603 8.08616 12.5C8.08616 11.3397 8.56003 10.2269 9.40352 9.40641C10.247 8.58594 11.391 8.125 12.5839 8.125C13.7768 8.125 14.9208 8.58594 15.7643 9.40641C16.6078 10.2269 17.0816 11.3397 17.0816 12.5C17.0816 13.6603 16.6078 14.7731 15.7643 15.5936C14.9208 16.4141 13.7768 16.875 12.5839 16.875ZM22.1319 13.7125C22.1833 13.3125 22.2219 12.9125 22.2219 12.5C22.2219 12.0875 22.1833 11.675 22.1319 11.25L24.8434 9.2125C25.0876 9.025 25.1518 8.6875 24.9976 8.4125L22.4275 4.0875C22.2733 3.8125 21.9263 3.7 21.6436 3.8125L18.4438 5.0625C17.7756 4.575 17.0816 4.15 16.272 3.8375L15.7966 0.525002C15.7705 0.377774 15.6916 0.244286 15.574 0.148192C15.4564 0.0520973 15.3076 -0.000399718 15.154 2.29184e-06H10.0138C9.69249 2.29184e-06 9.42263 0.225002 9.37123 0.525002L8.89575 3.8375C8.08616 4.15 7.39222 4.575 6.72399 5.0625L3.52417 3.8125C3.24146 3.7 2.89449 3.8125 2.74028 4.0875L0.17015 8.4125C0.00309172 8.6875 0.0801959 9.025 0.324359 9.2125L3.03585 11.25C2.98445 11.675 2.94589 12.0875 2.94589 12.5C2.94589 12.9125 2.98445 13.3125 3.03585 13.7125L0.324359 15.7875C0.0801959 15.975 0.00309172 16.3125 0.17015 16.5875L2.74028 20.9125C2.89449 21.1875 3.24146 21.2875 3.52417 21.1875L6.72399 19.925C7.39222 20.425 8.08616 20.85 8.89575 21.1625L9.37123 24.475C9.42263 24.775 9.69249 25 10.0138 25H15.154C15.4753 25 15.7452 24.775 15.7966 24.475L16.272 21.1625C17.0816 20.8375 17.7756 20.425 18.4438 19.925L21.6436 21.1875C21.9263 21.2875 22.2733 21.1875 22.4275 20.9125L24.9976 16.5875C25.1518 16.3125 25.0876 15.975 24.8434 15.7875L22.1319 13.7125Z" fill="#0288D1"/>
</svg>
