<svg width="24" height="24" viewBox="0 0 24 24" fill="none" xmlns="http://www.w3.org/2000/svg">
<path fill-rule="evenodd" clip-rule="evenodd" d="M12.288 20.9085L12.29 20.9075L12.295 20.904L12.31 20.8925L12.369 20.85C12.4197 20.813 12.4913 20.759 12.584 20.688C12.768 20.547 13.029 20.3395 13.3405 20.073C14.1582 19.3741 14.9228 18.6153 15.628 17.803C17.282 15.89 19 13.16 19 10.038C19 8.173 18.263 6.383 16.951 5.063C16.3026 4.40965 15.5313 3.89102 14.6816 3.53696C13.8319 3.1829 12.9205 3.00041 12 3C11.0795 3.00035 10.1682 3.18276 9.31849 3.53673C8.46879 3.8907 7.69749 4.40924 7.049 5.0625C5.73585 6.38561 4.99928 8.17437 5 10.0385C5 13.16 6.718 15.89 8.372 17.803C9.07718 18.6153 9.84179 19.3741 10.6595 20.073C10.9715 20.3395 11.232 20.547 11.416 20.688C11.5063 20.7575 11.5974 20.8259 11.6895 20.893L11.7055 20.904L11.71 20.9075L11.712 20.9085C11.8845 21.03 12.1155 21.03 12.288 20.9085ZM14.5 10C14.5 10.663 14.2366 11.2989 13.7678 11.7678C13.2989 12.2366 12.663 12.5 12 12.5C11.337 12.5 10.7011 12.2366 10.2322 11.7678C9.76339 11.2989 9.5 10.663 9.5 10C9.5 9.33696 9.76339 8.70107 10.2322 8.23223C10.7011 7.76339 11.337 7.5 12 7.5C12.663 7.5 13.2989 7.76339 13.7678 8.23223C14.2366 8.70107 14.5 9.33696 14.5 10Z" fill="#8FC555"/>
</svg>
