<svg width="47" height="47" viewBox="0 0 47 47" fill="none" xmlns="http://www.w3.org/2000/svg">
<g clip-path="url(#clip0_10_164)">
<path d="M23.5 4.40625C12.9525 4.40625 4.40625 12.9525 4.40625 23.5V27.1719C4.40625 28.3928 3.42402 29.375 2.20312 29.375C0.982227 29.375 0 28.3928 0 27.1719V23.5C0 10.5199 10.5199 0 23.5 0C36.4801 0 47 10.5199 47 23.5V36.7279C47 41.1893 43.3832 44.8061 38.9127 44.8061L28.7875 44.7969C28.0256 46.1096 26.6027 47 24.9688 47H22.0312C19.5986 47 17.625 45.0264 17.625 42.5938C17.625 40.1611 19.5986 38.1875 22.0312 38.1875H24.9688C26.6027 38.1875 28.0256 39.0779 28.7875 40.3906L38.9219 40.3998C40.9506 40.3998 42.5938 38.7566 42.5938 36.7279V23.5C42.5938 12.9525 34.0475 4.40625 23.5 4.40625ZM13.2188 19.0938H14.6875C16.3123 19.0938 17.625 20.4064 17.625 22.0312V32.3125C17.625 33.9373 16.3123 35.25 14.6875 35.25H13.2188C9.97832 35.25 7.34375 32.6154 7.34375 29.375V24.9688C7.34375 21.7283 9.97832 19.0938 13.2188 19.0938ZM33.7812 19.0938C37.0217 19.0938 39.6562 21.7283 39.6562 24.9688V29.375C39.6562 32.6154 37.0217 35.25 33.7812 35.25H32.3125C30.6877 35.25 29.375 33.9373 29.375 32.3125V22.0312C29.375 20.4064 30.6877 19.0938 32.3125 19.0938H33.7812Z" fill="#8FC555"/>
</g>
<defs>
<clipPath id="clip0_10_164">
<rect width="47" height="47" fill="white"/>
</clipPath>
</defs>
</svg>
