<svg width="38" height="38" viewBox="0 0 38 38" fill="none" xmlns="http://www.w3.org/2000/svg">
<path d="M34.4375 17.2188H19.5938V12.4688H21.375C21.8474 12.4687 22.3005 12.2811 22.6345 11.947C22.9686 11.613 23.1562 11.1599 23.1562 10.6875V5.9375C23.1562 5.46508 22.9686 5.01202 22.6345 4.67797C22.3005 4.34392 21.8474 4.15625 21.375 4.15625H16.625C16.1526 4.15625 15.6995 4.34392 15.3655 4.67797C15.0314 5.01202 14.8438 5.46508 14.8438 5.9375V10.6875C14.8438 11.1599 15.0314 11.613 15.3655 11.947C15.6995 12.2811 16.1526 12.4687 16.625 12.4688H18.4062V17.2188H3.5625C3.40503 17.2188 3.25401 17.2813 3.14266 17.3927C3.03131 17.504 2.96875 17.655 2.96875 17.8125C2.96875 17.97 3.03131 18.121 3.14266 18.2323C3.25401 18.3437 3.40503 18.4062 3.5625 18.4062H8.90625V24.3438H7.125C6.65258 24.3438 6.19951 24.5314 5.86547 24.8655C5.53142 25.1995 5.34375 25.6526 5.34375 26.125V30.875C5.34375 31.3474 5.53142 31.8005 5.86547 32.1345C6.19951 32.4686 6.65258 32.6562 7.125 32.6562H11.875C12.3474 32.6562 12.8005 32.4686 13.1345 32.1345C13.4686 31.8005 13.6562 31.3474 13.6562 30.875V26.125C13.6562 25.6526 13.4686 25.1995 13.1345 24.8655C12.8005 24.5314 12.3474 24.3438 11.875 24.3438H10.0938V18.4062H27.9062V24.3438H26.125C25.6526 24.3438 25.1995 24.5314 24.8655 24.8655C24.5314 25.1995 24.3438 25.6526 24.3438 26.125V30.875C24.3438 31.3474 24.5314 31.8005 24.8655 32.1345C25.1995 32.4686 25.6526 32.6562 26.125 32.6562H30.875C31.3474 32.6562 31.8005 32.4686 32.1345 32.1345C32.4686 31.8005 32.6562 31.3474 32.6562 30.875V26.125C32.6562 25.6526 32.4686 25.1995 32.1345 24.8655C31.8005 24.5314 31.3474 24.3438 30.875 24.3438H29.0938V18.4062H34.4375C34.595 18.4062 34.746 18.3437 34.8573 18.2323C34.9687 18.121 35.0312 17.97 35.0312 17.8125C35.0312 17.655 34.9687 17.504 34.8573 17.3927C34.746 17.2813 34.595 17.2188 34.4375 17.2188ZM16.0312 10.6875V5.9375C16.0312 5.78003 16.0938 5.62901 16.2052 5.51766C16.3165 5.40631 16.4675 5.34375 16.625 5.34375H21.375C21.5325 5.34375 21.6835 5.40631 21.7948 5.51766C21.9062 5.62901 21.9688 5.78003 21.9688 5.9375V10.6875C21.9688 10.845 21.9062 10.996 21.7948 11.1073C21.6835 11.2187 21.5325 11.2812 21.375 11.2812H16.625C16.4675 11.2812 16.3165 11.2187 16.2052 11.1073C16.0938 10.996 16.0312 10.845 16.0312 10.6875ZM12.4688 26.125V30.875C12.4688 31.0325 12.4062 31.1835 12.2948 31.2948C12.1835 31.4062 12.0325 31.4688 11.875 31.4688H7.125C6.96753 31.4688 6.81651 31.4062 6.70516 31.2948C6.59381 31.1835 6.53125 31.0325 6.53125 30.875V26.125C6.53125 25.9675 6.59381 25.8165 6.70516 25.7052C6.81651 25.5938 6.96753 25.5312 7.125 25.5312H11.875C12.0325 25.5312 12.1835 25.5938 12.2948 25.7052C12.4062 25.8165 12.4688 25.9675 12.4688 26.125ZM31.4688 26.125V30.875C31.4688 31.0325 31.4062 31.1835 31.2948 31.2948C31.1835 31.4062 31.0325 31.4688 30.875 31.4688H26.125C25.9675 31.4688 25.8165 31.4062 25.7052 31.2948C25.5938 31.1835 25.5312 31.0325 25.5312 30.875V26.125C25.5312 25.9675 25.5938 25.8165 25.7052 25.7052C25.8165 25.5938 25.9675 25.5312 26.125 25.5312H30.875C31.0325 25.5312 31.1835 25.5938 31.2948 25.7052C31.4062 25.8165 31.4688 25.9675 31.4688 26.125Z" fill="black"/>
</svg>
