<svg width="38" height="38" viewBox="0 0 38 38" fill="none" xmlns="http://www.w3.org/2000/svg">
<path d="M10.2917 14.25H8.70833M16.625 14.25H15.0417M10.2917 9.49996H8.70833M16.625 9.49996H15.0417M29.2917 23.75H27.7083M29.2917 17.4166H27.7083M22.1667 12.6666V34.8333H28.5C31.4862 34.8333 32.9777 34.8333 33.9055 33.9055C34.8333 32.9776 34.8333 31.4861 34.8333 28.5V19C34.8333 16.0138 34.8333 14.5223 33.9055 13.5945C32.9777 12.6666 31.4862 12.6666 28.5 12.6666H22.1667ZM22.1667 12.6666C22.1667 8.18896 22.1667 5.94854 20.7749 4.55838C19.3847 3.16663 17.1443 3.16663 12.6667 3.16663C8.189 3.16663 5.94858 3.16663 4.55841 4.55838C3.16666 5.94854 3.16666 8.18896 3.16666 12.6666V17.4166M9.67575 20.987C9.96866 20.7179 10.1143 20.5833 10.2917 20.5833C10.469 20.5833 10.6147 20.7179 10.9076 20.987L12.0365 22.0273C12.1727 22.1524 12.2407 22.2157 12.3247 22.2458C12.4102 22.2775 12.502 22.2743 12.6888 22.2664L14.212 22.2062C14.6047 22.1904 14.801 22.184 14.9356 22.2965C15.0702 22.4089 15.0971 22.6036 15.1493 22.9931L15.3583 24.5543C15.3837 24.7348 15.3947 24.8235 15.4391 24.9026C15.4834 24.9786 15.5547 25.034 15.6972 25.1465L16.9258 26.1123C17.2298 26.353 17.3818 26.4717 17.4119 26.6427C17.442 26.8137 17.3391 26.9784 17.1348 27.3077L16.3036 28.6488C16.2086 28.8024 16.1611 28.88 16.1452 28.9655C16.1294 29.051 16.1484 29.1412 16.1864 29.3185L16.5157 30.867C16.5981 31.247 16.6377 31.437 16.5506 31.589C16.4635 31.741 16.2782 31.8012 15.9093 31.9215L14.4432 32.3981C14.269 32.4551 14.1819 32.4836 14.1122 32.5406C14.0442 32.5992 14.0014 32.6815 13.9175 32.8446L13.2018 34.2237C13.0197 34.5768 12.9279 34.7525 12.7617 34.8127C12.5954 34.8729 12.4133 34.7969 12.046 34.6449L10.64 34.0622C10.4674 33.991 10.3819 33.9545 10.2917 33.9545C10.2014 33.9545 10.1159 33.991 9.94333 34.0622L8.53733 34.6449C8.17 34.7969 7.98791 34.8729 7.82166 34.8127C7.65541 34.7525 7.56358 34.5752 7.3815 34.2237L6.66583 32.8446C6.58033 32.6815 6.53916 32.5992 6.47108 32.5422C6.403 32.4852 6.31433 32.4551 6.14016 32.3997L4.674 31.9215C4.30508 31.8012 4.11983 31.741 4.03275 31.589C3.94566 31.437 3.98525 31.2486 4.06758 30.867L4.39691 29.3185C4.43491 29.1412 4.45391 29.0525 4.43808 28.967C4.40561 28.8525 4.3519 28.7451 4.27975 28.6504L3.44691 27.3077C3.24425 26.9784 3.14133 26.8137 3.17141 26.6427C3.2015 26.4717 3.3535 26.353 3.6575 26.1139L4.88616 25.148C5.02866 25.034 5.09991 24.9786 5.14425 24.901C5.18858 24.8235 5.19966 24.7348 5.22341 24.5527L5.434 22.9931C5.48625 22.6052 5.51316 22.4089 5.64775 22.2965C5.78233 22.184 5.97866 22.1904 6.37133 22.2062L7.89608 22.2664C8.08133 22.2743 8.17316 22.2775 8.25866 22.2458C8.34258 22.2141 8.41066 22.1524 8.54683 22.0273L9.67575 20.987Z" stroke="black" stroke-width="1.5" stroke-linecap="round" stroke-linejoin="round"/>
</svg>
