<svg width="24" height="24" viewBox="0 0 24 24" fill="none" xmlns="http://www.w3.org/2000/svg">
<g clip-path="url(#clip0_5_42)">
<path d="M19.23 15.26L16.69 14.97C16.3914 14.9349 16.0886 14.968 15.8046 15.0667C15.5206 15.1654 15.2626 15.3272 15.05 15.54L13.21 17.38C10.3714 15.9359 8.0641 13.6286 6.62004 10.79L8.47004 8.94C8.90004 8.51 9.11004 7.91 9.04004 7.3L8.75004 4.78C8.69356 4.29209 8.45951 3.84202 8.0925 3.51559C7.7255 3.18916 7.25121 3.00919 6.76004 3.01H5.03004C3.90004 3.01 2.96004 3.95 3.03004 5.08C3.56004 13.62 10.39 20.44 18.92 20.97C20.05 21.04 20.99 20.1 20.99 18.97V17.24C21 16.23 20.24 15.38 19.23 15.26Z" fill="#0288D1"/>
</g>
<defs>
<clipPath id="clip0_5_42">
<rect width="24" height="24" fill="white"/>
</clipPath>
</defs>
</svg>
