<svg width="38" height="38" viewBox="0 0 38 38" fill="none" xmlns="http://www.w3.org/2000/svg">
<path d="M26.9166 6.33337V14.25H28.5C29.7597 14.25 30.9679 14.7505 31.8587 15.6413C32.7495 16.5321 33.25 17.7403 33.25 19V26.9167H26.9166V33.25H9.49996V26.9167H3.16663V19C3.16663 17.7403 3.66707 16.5321 4.55787 15.6413C5.44867 14.7505 6.65685 14.25 7.91663 14.25H9.49996V6.33337H26.9166ZM28.5 20.5834C28.08 20.5834 27.6773 20.4166 27.3804 20.1196C27.0834 19.8227 26.9166 19.42 26.9166 19C26.9166 18.5801 27.0834 18.1774 27.3804 17.8805C27.6773 17.5835 28.08 17.4167 28.5 17.4167C28.9199 17.4167 29.3226 17.5835 29.6195 17.8805C29.9165 18.1774 30.0833 18.5801 30.0833 19C30.0833 19.42 29.9165 19.8227 29.6195 20.1196C29.3226 20.4166 28.9199 20.5834 28.5 20.5834ZM4.74996 19V25.3334H9.49996V22.1667H26.9166V25.3334H31.6666V19C31.6666 18.1602 31.333 17.3547 30.7391 16.7609C30.1453 16.167 29.3398 15.8334 28.5 15.8334H7.91663C7.07677 15.8334 6.27132 16.167 5.67745 16.7609C5.08359 17.3547 4.74996 18.1602 4.74996 19ZM25.3333 31.6667V23.75H11.0833V31.6667H25.3333ZM11.0833 7.91671V14.25H25.3333V7.91671H11.0833Z" fill="black"/>
</svg>
