<svg width="38" height="38" viewBox="0 0 38 38" fill="none" xmlns="http://www.w3.org/2000/svg">
<path d="M26.9166 23.7499H18.9999M11.0833 15.8333L11.4538 16.142C13.4836 17.833 14.4985 18.6785 14.4985 19.7916C14.4985 20.9047 13.4852 21.7502 11.4538 23.4412L11.0833 23.7499" stroke="black" stroke-width="1.5" stroke-linecap="round"/>
<path d="M34.8333 19C34.8333 26.4638 34.8333 30.1957 32.5137 32.5137C30.1973 34.8333 26.4638 34.8333 19 34.8333C11.5361 34.8333 7.80421 34.8333 5.48463 32.5137C3.16663 30.1973 3.16663 26.4638 3.16663 19C3.16663 11.5361 3.16663 7.80421 5.48463 5.48463C7.80579 3.16663 11.5361 3.16663 19 3.16663C26.4638 3.16663 30.1957 3.16663 32.5137 5.48463C34.0559 7.02679 34.572 9.19438 34.7462 12.6666" stroke="black" stroke-width="1.5" stroke-linecap="round"/>
</svg>
