<svg width="35" height="34" viewBox="0 0 35 34" fill="none" xmlns="http://www.w3.org/2000/svg">
<path d="M20.4167 19.4167C16.5229 19.4167 8.75 21.3562 8.75 25.25V28.1667H32.0833V25.25C32.0833 21.3562 24.3104 19.4167 20.4167 19.4167ZM7.29167 13.5833V9.20833H4.375V13.5833H0V16.5H4.375V20.875H7.29167V16.5H11.6667V13.5833M20.4167 16.5C21.9638 16.5 23.4475 15.8854 24.5415 14.7914C25.6354 13.6975 26.25 12.2138 26.25 10.6667C26.25 9.11956 25.6354 7.63583 24.5415 6.54187C23.4475 5.44791 21.9638 4.83333 20.4167 4.83333C18.8696 4.83333 17.3858 5.44791 16.2919 6.54187C15.1979 7.63583 14.5833 9.11956 14.5833 10.6667C14.5833 12.2138 15.1979 13.6975 16.2919 14.7914C17.3858 15.8854 18.8696 16.5 20.4167 16.5Z" fill="#42426A"/>
</svg>
