<svg width="38" height="38" viewBox="0 0 38 38" fill="none" xmlns="http://www.w3.org/2000/svg">
<path fill-rule="evenodd" clip-rule="evenodd" d="M13.1417 5.14587H24.8584C26.2818 5.14587 27.4677 5.14587 28.4098 5.27254C29.4025 5.40554 30.3003 5.70004 31.0223 6.42046C31.7427 7.14246 32.0356 8.04021 32.1702 9.03296C32.2969 9.97504 32.2969 11.1625 32.2969 12.5844V24.1174L34.6924 26.589L34.6972 26.5953L34.7099 26.6064L34.7209 26.619L34.7304 26.6285L34.7463 26.6444L34.7621 26.6618L34.77 26.6697L34.7827 26.684L34.7969 26.6998L34.8096 26.7156L34.8286 26.7394C35.4176 27.4202 35.9417 28.4399 36.0129 29.458V29.4643L36.0177 29.5007V29.5213L36.0209 29.5435V29.7255C36.0209 29.9314 36.0209 30.2306 36.0129 30.3589C35.9457 31.416 35.4954 32.4125 34.7464 33.1615C33.9974 33.9105 33.0009 34.3608 31.9438 34.428C31.8044 34.4375 31.6509 34.4375 31.4514 34.4375H6.55027C6.35077 34.4375 6.19719 34.4375 6.05944 34.428C5.00171 34.3616 4.00452 33.9116 3.25483 33.1625C2.50513 32.4134 2.05439 31.4166 1.98711 30.3589C1.98035 30.1489 1.97824 29.9388 1.98077 29.7287V29.5435L1.98236 29.5213V29.5023L1.98711 29.4643V29.458C2.05994 28.4399 2.58402 27.4218 3.17302 26.7394L3.19202 26.7156L3.20469 26.6998L3.22052 26.684L3.23161 26.6697L3.23794 26.6618L3.25536 26.646L3.27119 26.6285L3.27911 26.619L3.29177 26.6064L3.30286 26.5953L3.30919 26.589L5.70477 24.1174V12.5844C5.70477 11.1625 5.70477 9.97504 5.83144 9.03454C5.96444 8.04021 6.25894 7.14246 6.97936 6.42204C7.70136 5.70004 8.59911 5.40554 9.59186 5.27254C10.5339 5.14587 11.7183 5.14587 13.1417 5.14587ZM7.39419 25.7862L4.99702 28.261C4.63761 28.6615 4.37319 29.2521 4.35577 29.6495V30.0026L4.35736 30.2085C4.38804 30.6894 4.59316 31.1426 4.93422 31.4831C5.27528 31.8236 5.72886 32.0279 6.20986 32.0578C6.26211 32.0625 6.33336 32.0625 6.58827 32.0625H31.4118C31.6651 32.0625 31.7379 32.0625 31.7918 32.0578C32.2722 32.0272 32.725 31.8225 33.0654 31.4821C33.4058 31.1417 33.6105 30.6889 33.6411 30.2085L33.6427 30.153L33.6443 29.7461V29.6511C33.6269 29.2521 33.3624 28.6615 33.0014 28.261L30.6043 25.7862H7.39419ZM29.9203 23.4112V12.6667C29.9203 11.1404 29.9171 10.1144 29.8142 9.34962C29.716 8.61971 29.5466 8.30621 29.3392 8.10037C29.1318 7.89454 28.8214 7.72512 28.0915 7.62537C27.3268 7.52404 26.3008 7.52087 24.7744 7.52087H13.2256C11.6993 7.52087 10.6733 7.52404 9.90852 7.62696C9.17861 7.72512 8.86511 7.89454 8.65927 8.10196C8.45344 8.30937 8.28244 8.61971 8.18427 9.34962C8.08136 10.1144 8.07977 11.1404 8.07977 12.6667V23.4112H29.9203ZM3.69077 28.538L3.64169 28.519L3.65594 28.527L3.69077 28.538ZM13.8542 29.2917C13.8542 28.9768 13.9793 28.6747 14.202 28.452C14.4247 28.2293 14.7267 28.1042 15.0417 28.1042H22.9584C23.2733 28.1042 23.5753 28.2293 23.798 28.452C24.0207 28.6747 24.1459 28.9768 24.1459 29.2917C24.1459 29.6067 24.0207 29.9087 23.798 30.1314C23.5753 30.3541 23.2733 30.4792 22.9584 30.4792H15.0417C14.7267 30.4792 14.4247 30.3541 14.202 30.1314C13.9793 29.9087 13.8542 29.6067 13.8542 29.2917Z" fill="black"/>
<path d="M20.1875 10.6875C20.1875 11.0024 20.0624 11.3045 19.8397 11.5272C19.617 11.7499 19.3149 11.875 19 11.875C18.6851 11.875 18.383 11.7499 18.1603 11.5272C17.9376 11.3045 17.8125 11.0024 17.8125 10.6875C17.8125 10.3726 17.9376 10.0705 18.1603 9.84781C18.383 9.62511 18.6851 9.5 19 9.5C19.3149 9.5 19.617 9.62511 19.8397 9.84781C20.0624 10.0705 20.1875 10.3726 20.1875 10.6875Z" fill="black"/>
</svg>
