<svg width="26" height="26" viewBox="0 0 56 56" fill="none" xmlns="http://www.w3.org/2000/svg">
<path d="M44.4033 17.2434L47.7167 13.93C46.6667 12.74 45.6167 11.6667 44.4267 10.64L41.1133 14C37.4967 11.06 32.9467 9.33337 28 9.33337C22.4305 9.33337 17.089 11.5459 13.1508 15.4841C9.21249 19.4224 7 24.7638 7 30.3334C7 35.9029 9.21249 41.2444 13.1508 45.1826C17.089 49.1209 22.4305 51.3334 28 51.3334C39.6667 51.3334 49 41.93 49 30.3334C49 25.3867 47.2733 20.8367 44.4033 17.2434ZM30.3333 32.6667H25.6667V16.3334H30.3333V32.6667ZM35 2.33337H21V7.00004H35V2.33337Z" fill="#0288D1"/>
</svg>
