<svg width="46" height="46" viewBox="0 0 46 46" fill="none" xmlns="http://www.w3.org/2000/svg">
<g clip-path="url(#clip0_12_2)">
<path d="M41.6108 38.8892L38.8891 41.6109C38.53 41.9679 38.0442 42.1682 37.5379 42.1682C37.0315 42.1682 36.5457 41.9679 36.1866 41.6109L13.4166 18.8792C12.7934 19.06 12.1488 19.1567 11.5 19.1667C10.2796 19.1658 9.07714 18.8737 7.99245 18.3145C6.90777 17.7553 5.97224 16.9453 5.26364 15.9517C4.55505 14.9582 4.09386 13.8099 3.91842 12.6022C3.74298 11.3946 3.85836 10.1625 4.25497 9.00837L9.12331 13.8767L10.1391 12.8609L12.8608 10.1392L13.8766 9.12337L9.00831 4.25504C10.1624 3.85843 11.3945 3.74305 12.6021 3.91849C13.8098 4.09392 14.9581 4.55511 15.9517 5.26371C16.9452 5.97231 17.7552 6.90784 18.3144 7.99252C18.8736 9.07721 19.1658 10.2797 19.1666 11.5C19.1566 12.1489 19.0599 12.7935 18.8791 13.4167L41.6108 36.1867C41.9678 36.5458 42.1682 37.0316 42.1682 37.538C42.1682 38.0443 41.9678 38.5301 41.6108 38.8892ZM4.38914 36.1867C4.03216 36.5458 3.83179 37.0316 3.83179 37.538C3.83179 38.0443 4.03216 38.5301 4.38914 38.8892L7.11081 41.6109C7.46992 41.9679 7.9557 42.1682 8.46206 42.1682C8.96841 42.1682 9.45419 41.9679 9.81331 41.6109L20.2975 31.1459L14.8733 25.7217M38.3333 3.83337L30.6666 7.66671V11.5L26.5075 15.6592L30.3408 19.4925L34.5 15.3334H38.3333L42.1666 7.66671L38.3333 3.83337Z" fill="#0288D1"/>
</g>
<defs>
<clipPath id="clip0_12_2">
<rect width="46" height="46" fill="white"/>
</clipPath>
</defs>
</svg>
