<svg width="38" height="38" viewBox="0 0 38 38" fill="none" xmlns="http://www.w3.org/2000/svg">
<path d="M7.91663 31.6667V30.0834C7.91663 27.1439 9.08433 24.3248 11.1629 22.2463C13.2414 20.1677 16.0605 19 19 19M19 19C21.9394 19 24.7585 20.1677 26.8371 22.2463C28.9156 24.3248 30.0833 27.1439 30.0833 30.0834V31.6667M19 19C20.6797 19 22.2906 18.3328 23.4783 17.1451C24.666 15.9573 25.3333 14.3464 25.3333 12.6667C25.3333 10.987 24.666 9.37609 23.4783 8.18836C22.2906 7.00063 20.6797 6.33337 19 6.33337C17.3203 6.33337 15.7093 7.00063 14.5216 8.18836C13.3339 9.37609 12.6666 10.987 12.6666 12.6667C12.6666 14.3464 13.3339 15.9573 14.5216 17.1451C15.7093 18.3328 17.3203 19 19 19Z" stroke="black" stroke-width="1.5" stroke-linecap="round" stroke-linejoin="round"/>
</svg>
