<svg width="104" height="104" viewBox="0 0 104 104" fill="none" xmlns="http://www.w3.org/2000/svg">
<path d="M52 5.41667C26.273 5.41667 5.41663 26.273 5.41663 52C5.41663 77.727 26.273 98.5833 52 98.5833C77.727 98.5833 98.5833 77.727 98.5833 52C98.5833 26.273 77.727 5.41667 52 5.41667ZM11.9166 52C11.917 45.541 13.4783 39.1777 16.4675 33.452C19.4567 27.7264 23.7852 22.8078 29.0847 19.1153C34.3841 15.4227 40.4974 13.0655 46.9039 12.2443C53.3105 11.4232 59.8207 12.1624 65.8801 14.399C71.9395 16.6356 77.3686 20.3035 81.7053 25.0902C86.0419 29.8769 89.1575 35.6407 90.7869 41.8908C92.4163 48.1409 92.5112 54.6922 91.0634 60.9869C89.6157 67.2815 86.6682 73.1331 82.472 78.0433C81.5305 74.7339 79.7894 71.707 77.402 69.2293C74.0133 65.7063 69.7753 63.6567 66.1006 62.5127C63.388 61.6677 60.8313 62.6427 59.15 63.7823C57.59 64.831 55.0766 66.0833 52 66.0833C48.9233 66.0833 46.41 64.8267 44.85 63.7823C43.1686 62.647 40.612 61.6677 37.8993 62.5127C34.2203 63.6567 29.9866 65.7063 26.598 69.2293C24.2112 71.7058 22.4701 74.7312 21.528 78.039C15.3086 70.7908 11.8979 61.5507 11.9166 52ZM27.1396 83.4427C27.469 79.0617 29.133 75.972 31.2866 73.7317C33.683 71.2357 36.8333 69.654 39.832 68.718C39.9793 68.6833 40.1332 68.6878 40.2783 68.731C40.613 68.8223 40.9296 68.9703 41.2143 69.1687C43.3853 70.6333 47.1683 72.5833 52 72.5833C56.8316 72.5833 60.6146 70.6333 62.7856 69.1687C63.0706 68.9719 63.3872 68.8253 63.7216 68.7353C63.8663 68.6907 64.0202 68.6847 64.168 68.718C67.1666 69.654 70.317 71.2357 72.7133 73.7317C74.867 75.972 76.5266 79.0617 76.8603 83.4427C69.7906 89.0541 61.0259 92.1004 52 92.0833C42.974 92.1004 34.2093 89.0541 27.1396 83.4427ZM42.25 43.3333C42.25 37.9167 46.4533 33.5833 52 33.5833C57.5466 33.5833 61.75 37.9167 61.75 43.3333C61.75 48.75 57.5466 53.0833 52 53.0833C46.4533 53.0833 42.25 48.75 42.25 43.3333ZM52 27.0833C49.8612 27.066 47.7403 27.4745 45.7609 28.285C43.7816 29.0955 41.9833 30.2918 40.4709 31.8042C38.9585 33.3167 37.7621 35.1149 36.9516 37.0943C36.1411 39.0737 35.7326 41.1945 35.75 43.3333C35.7326 45.4721 36.1411 47.593 36.9516 49.5724C37.7621 51.5517 38.9585 53.35 40.4709 54.8624C41.9833 56.3748 43.7816 57.5712 45.7609 58.3817C47.7403 59.1922 49.8612 59.6007 52 59.5833C54.1388 59.6007 56.2596 59.1922 58.239 58.3817C60.2184 57.5712 62.0166 56.3748 63.5291 54.8624C65.0415 53.35 66.2378 51.5517 67.0483 49.5724C67.8588 47.593 68.2673 45.4721 68.25 43.3333C68.2673 41.1945 67.8588 39.0737 67.0483 37.0943C66.2378 35.1149 65.0415 33.3167 63.5291 31.8042C62.0166 30.2918 60.2184 29.0955 58.239 28.285C56.2596 27.4745 54.1388 27.066 52 27.0833Z" fill="black"/>
</svg>
