<svg width="35" height="35" viewBox="0 0 47 47" fill="none" xmlns="http://www.w3.org/2000/svg"><path d="M10.071 45.321h10.072m-5.036 0v-6.714M1.68 21.821V35.25a3.357 3.357 0 003.357 3.357H25.18a3.357 3.357 0 003.357-3.357V21.821a3.357 3.357 0 00-3.357-3.357H5.036a3.357 3.357 0 00-3.357 3.357z" stroke="#000" stroke-linecap="round" stroke-linejoin="round"/><path d="M25.179 11.75v-1.678a1.679 1.679 0 011.678-1.68h16.786a1.678 1.678 0 011.678 1.68v33.57a1.679 1.679 0 01-1.678 1.68H30.214" stroke="#000" stroke-linecap="round" stroke-linejoin="round"/><path d="M35.25 23.5h10.071m-7.133-7.134a.42.42 0 110-.839.42.42 0 010 .84z" stroke="#000" stroke-linecap="round" stroke-linejoin="round"/></svg>