<svg width="38" height="38" fill="none" xmlns="http://www.w3.org/2000/svg"><path d="M4.75 19c0 2.623 5.671 4.75 12.667 4.75.536 0 1.064-.012 1.583-.037" stroke="#000" stroke-width="1.5" stroke-linecap="round" stroke-linejoin="round"/><path d="M30.083 7.917v10.291M4.75 7.917v22.166c0 2.624 5.671 4.75 12.667 4.75.536 0 1.064-.012 1.583-.036" stroke="#000" stroke-width="1.5" stroke-linecap="round" stroke-linejoin="round"/><path d="M17.417 12.667c6.995 0 12.666-2.127 12.666-4.75 0-2.624-5.67-4.75-12.666-4.75S4.75 5.293 4.75 7.917c0 2.623 5.671 4.75 12.667 4.75zm-6.334 0v3.166m0 7.917v3.167m20.563-4.75l.792 3.3-1.314-.82a5.542 5.542 0 00-3.36-1.133c-3.09 0-5.597 2.533-5.597 5.66 0 3.126 2.506 5.66 5.597 5.66 2.707 0 4.967-1.945 5.486-4.529" stroke="#000" stroke-width="1.5" stroke-linecap="round" stroke-linejoin="round"/></svg>