<svg width="26" height="25" fill="none" xmlns="http://www.w3.org/2000/svg"><path d="M12.584 16.875a4.562 4.562 0 01-3.18-1.281A4.315 4.315 0 018.086 12.5c0-1.16.474-2.273 1.318-3.094a4.562 4.562 0 013.18-1.281c1.193 0 2.337.46 3.18 1.281a4.315 4.315 0 011.318 3.094c0 1.16-.474 2.273-1.318 3.094a4.562 4.562 0 01-3.18 1.281zm9.548-3.162c.051-.4.09-.8.09-1.213 0-.412-.039-.825-.09-1.25l2.711-2.037a.619.619 0 00.155-.8l-2.57-4.325a.64.64 0 00-.784-.276l-3.2 1.25c-.668-.487-1.362-.912-2.172-1.225L15.797.526a.629.629 0 00-.223-.377.661.661 0 00-.42-.148h-5.14a.645.645 0 00-.643.525l-.475 3.312c-.81.313-1.504.738-2.172 1.225l-3.2-1.25a.64.64 0 00-.784.276L.17 8.412a.605.605 0 00.154.8l2.712 2.038c-.052.425-.09.838-.09 1.25 0 .412.038.813.09 1.213L.324 15.788a.605.605 0 00-.154.8l2.57 4.325c.154.274.501.375.784.274l3.2-1.262c.668.5 1.362.925 2.172 1.238l.475 3.312c.052.3.321.525.643.525h5.14a.645.645 0 00.643-.525l.475-3.313a9.42 9.42 0 002.172-1.237l3.2 1.262c.282.1.63 0 .784-.274l2.57-4.326a.619.619 0 00-.155-.8l-2.711-2.075z" fill="#0288D1"/></svg>