<svg width="24" height="24" fill="none" xmlns="http://www.w3.org/2000/svg"><path fill-rule="evenodd" clip-rule="evenodd" d="M12.288 20.909l.002-.002.005-.003.015-.012.059-.042.215-.162a21.702 21.702 0 003.044-2.885C17.282 15.89 19 13.16 19 10.038a7.059 7.059 0 00-2.049-4.975 6.98 6.98 0 00-7.633-1.526A6.98 6.98 0 007.05 5.063 7.06 7.06 0 005 10.038c0 3.121 1.718 5.851 3.372 7.764a21.7 21.7 0 003.044 2.885c.09.07.181.138.274.205l.016.011.004.003.002.002a.5.5 0 00.576 0zM14.5 10a2.5 2.5 0 11-5 0 2.5 2.5 0 015 0z" fill="#8FC555"/></svg>