<svg width="47" height="47" fill="none" xmlns="http://www.w3.org/2000/svg"><g clip-path="url(#clip0_10_164)"><path d="M23.5 4.406c-10.547 0-19.094 8.547-19.094 19.094v3.672c0 1.22-.982 2.203-2.203 2.203A2.198 2.198 0 010 27.172V23.5C0 10.52 10.52 0 23.5 0S47 10.52 47 23.5v13.228c0 4.461-3.617 8.078-8.087 8.078l-10.125-.01A4.413 4.413 0 0124.968 47h-2.937a4.407 4.407 0 010-8.813h2.938c1.634 0 3.057.89 3.819 2.204l10.134.009a3.67 3.67 0 003.672-3.672V23.5c0-10.547-8.547-19.094-19.094-19.094zM13.219 19.094h1.469a2.934 2.934 0 012.937 2.937v10.282a2.934 2.934 0 01-2.938 2.937H13.22a5.88 5.88 0 01-5.875-5.875v-4.406a5.88 5.88 0 015.875-5.875zm20.562 0a5.88 5.88 0 015.875 5.875v4.406a5.88 5.88 0 01-5.875 5.875h-1.468a2.934 2.934 0 01-2.938-2.938v-10.28a2.934 2.934 0 012.938-2.938h1.468z" fill="#8FC555"/></g><defs><clipPath id="clip0_10_164"><path fill="#fff" d="M0 0h47v47H0z"/></clipPath></defs></svg>