<svg width="70" height="70" fill="none" xmlns="http://www.w3.org/2000/svg"><g clip-path="url(#clip0_5_12)"><path d="M35 70c19.33 0 35-15.67 35-35S54.33 0 35 0 0 15.67 0 35s15.67 35 35 35z" fill="#0288D1"/><path d="M61.145 17.197H8.855c-.746 0-1.398.606-1.398 1.398v35.047h55.04V18.595c.046-.792-.606-1.398-1.352-1.398z" fill="#DEDEDF"/><path d="M60.12 19.76H9.88v31.272h50.24V19.76z" fill="#6EB1E1"/><path d="M60.12 50.147H9.88v.931h50.24v-.931z" fill="#5EA6D3"/><path d="M1.818 53.595a6.763 6.763 0 006.757 6.758h52.85a6.763 6.763 0 006.758-6.758H1.818z" fill="#F1F3F7"/><path d="M27.404 53.595c0 1.212.978 2.19 2.19 2.19h10.859c1.211 0 2.19-.978 2.19-2.19h-15.24zm-15.287 3.542H8.296a.538.538 0 00-.56.56c0 .326.233.559.56.559h3.821a.54.54 0 00.56-.56.567.567 0 00-.56-.559zm49.587 0h-3.821a.539.539 0 00-.56.56c0 .326.233.559.56.559h3.821c.327 0 .56-.233.56-.56a.539.539 0 00-.56-.559z" fill="#BDBDBE"/><path d="M51.265 18.455l-3.123-.838c-.326-1.352-.838-2.61-1.537-3.729l1.63-2.796a.784.784 0 00-.139-.979l-2.33-2.33c-.28-.28-.653-.326-.979-.14l-2.796 1.631a13.698 13.698 0 00-3.729-1.538l-.839-3.122a.799.799 0 00-.792-.606H33.37c-.373 0-.7.233-.792.606l-.84 3.122c-1.35.327-2.609.84-3.727 1.538l-2.797-1.63c-.326-.187-.699-.14-.979.139l-2.33 2.33c-.28.28-.326.653-.14.979l1.632 2.796a13.693 13.693 0 00-1.538 3.729l-3.123.838a.799.799 0 00-.606.793v3.262c0 .373.233.699.606.792l3.123.84c.326 1.35.839 2.609 1.538 3.727l-1.631 2.797c-.187.326-.14.699.14.978l2.33 2.33c.28.28.652.327.978.14l2.796-1.63a13.7 13.7 0 003.729 1.537l.839 3.123c.093.373.42.605.792.605h3.262a.799.799 0 00.792-.605l.84-3.123c1.35-.326 2.61-.839 3.728-1.538l2.796 1.632c.326.186.699.14.979-.14l2.33-2.33a.786.786 0 00.14-.98l-1.631-2.796a13.7 13.7 0 001.538-3.728l3.122-.839a.799.799 0 00.606-.792v-3.262a.8.8 0 00-.606-.793zM35 26.891c-3.309 0-6.012-2.703-6.012-6.012 0-3.309 2.703-6.012 6.012-6.012 3.309 0 6.012 2.703 6.012 6.012 0 3.309-2.703 6.012-6.012 6.012z" fill="#4F5565"/><path d="M35 9.694c-6.198 0-11.185 5.033-11.185 11.185 0 6.198 5.033 11.185 11.185 11.185 6.199 0 11.185-5.034 11.185-11.185A11.158 11.158 0 0035 9.694zm0 17.197c-3.309 0-6.012-2.703-6.012-6.012 0-3.309 2.703-6.012 6.012-6.012 3.309 0 6.012 2.703 6.012 6.012 0 3.309-2.703 6.012-6.012 6.012z" fill="#646B79"/><path d="M35 12.956a7.916 7.916 0 00-7.923 7.923A7.916 7.916 0 0035 28.8a7.916 7.916 0 007.923-7.922A7.916 7.916 0 0035 12.956zm0 13.935c-3.309 0-6.012-2.703-6.012-6.012 0-3.309 2.703-6.012 6.012-6.012 3.309 0 6.012 2.703 6.012 6.012 0 3.309-2.703 6.012-6.012 6.012z" fill="#414753"/></g><defs><clipPath id="clip0_5_12"><path fill="#fff" d="M0 0h70v70H0z"/></clipPath></defs></svg>