<svg width="38" height="38" fill="none" xmlns="http://www.w3.org/2000/svg"><path d="M34.438 17.219H19.593v-4.75h1.781a1.781 1.781 0 001.781-1.781v-4.75a1.781 1.781 0 00-1.781-1.782h-4.75a1.781 1.781 0 00-1.781 1.782v4.75a1.78 1.78 0 001.781 1.78h1.781v4.75H3.563a.594.594 0 100 1.188h5.343v5.938H7.125a1.781 1.781 0 00-1.781 1.781v4.75a1.781 1.781 0 001.781 1.781h4.75a1.78 1.78 0 001.781-1.781v-4.75a1.78 1.78 0 00-1.781-1.781h-1.781v-5.938h17.812v5.938h-1.781a1.78 1.78 0 00-1.781 1.781v4.75a1.78 1.78 0 001.781 1.781h4.75a1.78 1.78 0 001.781-1.781v-4.75a1.78 1.78 0 00-1.781-1.781h-1.781v-5.938h5.343a.593.593 0 100-1.187zM16.03 10.687v-4.75a.594.594 0 01.594-.593h4.75a.594.594 0 01.594.593v4.75a.593.593 0 01-.594.594h-4.75a.593.593 0 01-.594-.594zm-3.56 15.439v4.75a.593.593 0 01-.594.594h-4.75a.594.594 0 01-.594-.594v-4.75a.594.594 0 01.594-.594h4.75a.593.593 0 01.594.594zm19 0v4.75a.593.593 0 01-.594.594h-4.75a.593.593 0 01-.594-.594v-4.75a.593.593 0 01.594-.594h4.75a.593.593 0 01.594.594z" fill="#000"/></svg>