<svg width="38" height="38" fill="none" xmlns="http://www.w3.org/2000/svg"><path d="M10.292 14.25H8.708m7.917 0h-1.583m-4.75-4.75H8.708m7.917 0h-1.583m14.25 14.25h-1.584m1.584-6.333h-1.584m-5.541-4.75v22.166H28.5c2.986 0 4.478 0 5.406-.927.927-.928.927-2.42.927-5.406V19c0-2.986 0-4.478-.927-5.405-.928-.928-2.42-.928-5.406-.928h-6.333zm0 0c0-4.478 0-6.718-1.392-8.109-1.39-1.391-3.63-1.391-8.108-1.391-4.478 0-6.718 0-8.109 1.391-1.391 1.39-1.391 3.631-1.391 8.109v4.75m6.509 3.57c.293-.27.438-.404.616-.404.177 0 .323.135.616.404l1.129 1.04c.136.125.204.189.288.219.085.032.177.028.364.02l1.523-.06c.393-.016.589-.022.724.09.134.113.161.308.213.697l.21 1.561c.025.18.036.27.08.349.044.076.116.131.258.244l1.229.965c.304.241.456.36.486.53.03.172-.073.336-.277.666l-.831 1.34c-.095.154-.143.232-.159.317-.016.086.003.176.041.354l.33 1.548c.082.38.122.57.035.722-.087.152-.273.212-.642.333l-1.466.476c-.174.057-.261.086-.33.143-.069.058-.112.14-.195.304l-.716 1.379c-.182.353-.274.529-.44.589-.167.06-.349-.016-.716-.168l-1.406-.583c-.173-.071-.258-.107-.348-.107-.09 0-.176.036-.349.107l-1.406.583c-.367.152-.55.228-.715.168-.167-.06-.258-.238-.44-.59l-.716-1.378c-.086-.163-.127-.246-.195-.303-.068-.057-.157-.087-.33-.142l-1.467-.478c-.369-.12-.554-.181-.641-.333-.087-.152-.048-.34.035-.722l.329-1.549c.038-.177.057-.266.041-.351a.95.95 0 00-.158-.317l-.833-1.342c-.203-.33-.306-.494-.276-.665.03-.171.183-.29.487-.53l1.228-.965c.143-.114.214-.17.258-.247.045-.078.056-.166.08-.348l.21-1.56c.052-.388.08-.584.214-.696.134-.113.33-.107.723-.09l1.525.06c.185.007.277.01.363-.021.084-.032.152-.094.288-.219l1.129-1.04z" stroke="#000" stroke-width="1.5" stroke-linecap="round" stroke-linejoin="round"/></svg>