<svg width="38" height="38" fill="none" xmlns="http://www.w3.org/2000/svg"><path d="M26.917 23.75H19m-7.917-7.917l.37.309c2.03 1.691 3.046 2.537 3.046 3.65s-1.014 1.958-3.045 3.65l-.37.308" stroke="#000" stroke-width="1.5" stroke-linecap="round"/><path d="M34.833 19c0 7.464 0 11.196-2.32 13.514-2.316 2.32-6.05 2.32-13.513 2.32-7.464 0-11.196 0-13.515-2.32C3.167 30.197 3.167 26.464 3.167 19c0-7.464 0-11.196 2.318-13.515C7.805 3.167 11.536 3.167 19 3.167s11.196 0 13.514 2.318c1.542 1.542 2.058 3.71 2.232 7.182" stroke="#000" stroke-width="1.5" stroke-linecap="round"/></svg>