<svg xmlns="http://www.w3.org/2000/svg" width="200" height="200" viewBox="0 0 888 888"><path fill="#fff" d="M0 0h1000v1000H0z"/><path d="M240 48h24.72v24.72H240zm48 0h24.72v24.72H288zm48 0h24.72v24.72H336z"/><path d="M360 48h24.72v24.72H360z"/><path d="M384 48h24.72v24.72H384z"/><path d="M408 48h24.72v24.72H408z"/><path d="M432 48h24.72v24.72H432z"/><path d="M456 48h24.72v24.72H456z"/><path d="M480 48h24.72v24.72H480zm120 0h24.72v24.72H600z"/><path d="M624 48h24.72v24.72H624zM240 72h24.72v24.72H240zm168 0h24.72v24.72H408zm48 0h24.72v24.72H456zm120 0h24.72v24.72H576z"/><path d="M624 72h24.72v24.72H624zM240 96h24.72v24.72H240z"/><path d="M264 96h24.72v24.72H264z"/><path d="M288 96h24.72v24.72H288zm96 0h24.72v24.72H384z"/><path d="M408 96h24.72v24.72H408zm72 0h24.72v24.72H480zm48 0h24.72v24.72H528z"/><path d="M552 96h24.72v24.72H552zm48 0h24.72v24.72H600z"/><path d="M624 96h24.72v24.72H624zm-360 24h24.72v24.72H264zm120 0h24.72v24.72H384z"/><path d="M408 120h24.72v24.72H408z"/><path d="M432 120h24.72v24.72H432z"/><path d="M456 120h24.72v24.72H456zm72 0h24.72v24.72H528zm48 0h24.72v24.72H576z"/><path d="M600 120h24.72v24.72H600zm-312 24h24.72v24.72H288zm48 0h24.72v24.72H336z"/><path d="M360 144h24.72v24.72H360z"/><path d="M384 144h24.72v24.72H384zm72 0h24.72v24.72H456z"/><path d="M480 144h24.72v24.72H480z"/><path d="M504 144h24.72v24.72H504zm120 0h24.72v24.72H624zm-384 24h24.72v24.72H240zm48 0h24.72v24.72H288zm96 0h24.72v24.72H384z"/><path d="M480 168h24.72v24.72H480z"/><path d="M504 168h24.72v24.72H504z"/><path d="M528 168h24.72v24.72H528z"/><path d="M552 168h24.72v24.72H552z"/><path d="M576 168h24.72v24.72H576zm-336 24h24.72v24.72H240zm48 0h24.72v24.72H288zm48 0h24.72v24.72H336zm48 0h24.72v24.72H384zm48 0h24.72v24.72H432zm48 0h24.72v24.72H480zm48 0h24.72v24.72H528z"/><path d="M576 192h24.72v24.72H576zm48 0h24.72v24.72H624zm-384 24h24.72v24.72H240z"/><path d="M264 216h24.72v24.72H264zm48 0h24.72v24.72H312z"/><path d="M336 216h24.72v24.72H336z"/><path d="M360 216h24.72v24.72H360zm72 0h24.72v24.72H432z"/><path d="M456 216h24.72v24.72H456z"/><path d="M480 216h24.72v24.72H480zm72 0h24.72v24.72H552zm72 0h24.72v24.72H624zM96 240h24.72v24.72H96z"/><path d="M120 240h24.72v24.72H120z"/><path d="M144 240h24.72v24.72H144zm48 0h24.72v24.72H192zm48 0h24.72v24.72H240z"/><path d="M264 240h24.72v24.72H264zm48 0h24.72v24.72H312zm48 0h24.72v24.72H360zm72 0h24.72v24.72H432zm48 0h24.72v24.72H480z"/><path d="M504 240h24.72v24.72H504zm72 0h24.72v24.72H576zm48 0h24.72v24.72H624z"/><path d="M648 240h24.72v24.72H648z"/><path d="M672 240h24.72v24.72H672z"/><path d="M696 240h24.72v24.72H696zm72 0h24.72v24.72H768z"/><path d="M792 240h24.72v24.72H792z"/><path d="M816 240h24.72v24.72H816zM72 264h24.72v24.72H72zm48 0h24.72v24.72H120z"/><path d="M144 264h24.72v24.72H144z"/><path d="M168 264h24.72v24.72H168zm144 0h24.72v24.72H312zm96 0h24.72v24.72H408zm72 0h24.72v24.72H480z"/><path d="M504 264h24.72v24.72H504z"/><path d="M528 264h24.72v24.72H528zm72 0h24.72v24.72H600zm48 0h24.72v24.72H648z"/><path d="M672 264h24.72v24.72H672zm72 0h24.72v24.72H744zm72 0h24.72v24.72H816zM72 288h24.72v24.72H72zm96 0h24.72v24.72H168z"/><path d="M192 288h24.72v24.72H192z"/><path d="M216 288h24.72v24.72H216z"/><path d="M240 288h24.72v24.72H240zm72 0h24.72v24.72H312zm120 0h24.72v24.72H432z"/><path d="M456 288h24.72v24.72H456zm48 0h24.72v24.72H504zm72 0h24.72v24.72H576zm96 0h24.72v24.72H672z"/><path d="M696 288h24.72v24.72H696zm48 0h24.72v24.72H744z"/><path d="M768 288h24.72v24.72H768z"/><path d="M792 288h24.72v24.72H792zM48 312h24.72v24.72H48z"/><path d="M72 312h24.72v24.72H72zm48 0h24.72v24.72H120z"/><path d="M144 312h24.72v24.72H144z"/><path d="M168 312h24.72v24.72H168zm72 0h24.72v24.72H240z"/><path d="M264 312h24.72v24.72H264z"/><path d="M288 312h24.72v24.72H288zm48 0h24.72v24.72H336zm72 0h24.72v24.72H408z"/><path d="M432 312h24.72v24.72H432z"/><path d="M456 312h24.72v24.72H456zm48 0h24.72v24.72H504zm120 0h24.72v24.72H624zm144 0h24.72v24.72H768z"/><path d="M792 312h24.72v24.72H792z"/><path d="M816 312h24.72v24.72H816zM48 336h24.72v24.72H48z"/><path d="M72 336h24.72v24.72H72z"/><path d="M96 336h24.72v24.72H96zm72 0h24.72v24.72H168z"/><path d="M192 336h24.72v24.72H192zm48 0h24.72v24.72H240z"/><path d="M264 336h24.72v24.72H264zm96 0h24.72v24.72H360z"/><path d="M384 336h24.72v24.72H384zm48 0h24.72v24.72H432z"/><path d="M456 336h24.72v24.72H456zm72 0h24.72v24.72H528z"/><path d="M552 336h24.72v24.72H552z"/><path d="M576 336h24.72v24.72H576zm48 0h24.72v24.72H624z"/><path d="M648 336h24.72v24.72H648zm48 0h24.72v24.72H696z"/><path d="M720 336h24.72v24.72H720zm72 0h24.72v24.72H792zM96 360h24.72v24.72H96zm48 0h24.72v24.72H144zm144 0h24.72v24.72H288z"/><path d="M312 360h24.72v24.72H312zm48 0h24.72v24.72H360z"/><path d="M384 360h24.72v24.72H384zm48 0h24.72v24.72H432z"/><path d="M456 360h24.72v24.72H456zm72 0h24.72v24.72H528zm72 0h24.72v24.72H600z"/><path d="M624 360h24.72v24.72H624z"/><path d="M648 360h24.72v24.72H648z"/><path d="M672 360h24.72v24.72H672z"/><path d="M696 360h24.72v24.72H696zm48 0h24.72v24.72H744zm72 0h24.72v24.72H816zM48 384h24.72v24.72H48z"/><path d="M72 384h24.72v24.72H72z"/><path d="M96 384h24.72v24.72H96zm96 0h24.72v24.72H192z"/><path d="M216 384h24.72v24.72H216z"/><path d="M240 384h24.72v24.72H240z"/><path d="M264 384h24.72v24.72H264zm48 0h24.72v24.72H312zm72 0h24.72v24.72H384zm48 0h24.72v24.72H432zm72 0h24.72v24.72H504zm72 0h24.72v24.72H576zm48 0h24.72v24.72H624z"/><path d="M648 384h24.72v24.72H648z"/><path d="M672 384h24.72v24.72H672z"/><path d="M696 384h24.72v24.72H696zm48 0h24.72v24.72H744z"/><path d="M768 384h24.72v24.72H768z"/><path d="M792 384h24.72v24.72H792zM48 408h24.72v24.72H48z"/><path d="M72 408h24.72v24.72H72z"/><path d="M96 408h24.72v24.72H96z"/><path d="M120 408h24.72v24.72H120z"/><path d="M144 408h24.72v24.72H144z"/><path d="M168 408h24.72v24.72H168zm72 0h24.72v24.72H240zm48 0h24.72v24.72H288z"/><path d="M312 408h24.72v24.72H312zm72 0h24.72v24.72H384z"/><path d="M408 408h24.72v24.72H408zm96 0h24.72v24.72H504z"/><path d="M528 408h24.72v24.72H528z"/><path d="M552 408h24.72v24.72H552z"/><path d="M576 408h24.72v24.72H576z"/><path d="M600 408h24.72v24.72H600z"/><path d="M624 408h24.72v24.72H624z"/><path d="M648 408h24.72v24.72H648z"/><path d="M672 408h24.72v24.72H672zm72 0h24.72v24.72H744z"/><path d="M768 408h24.72v24.72H768zm48 0h24.72v24.72H816zM72 432h24.72v24.72H72z"/><path d="M96 432h24.72v24.72H96z"/><path d="M120 432h24.72v24.72H120zm48 0h24.72v24.72H168z"/><path d="M192 432h24.72v24.72H192zm48 0h24.72v24.72H240zm48 0h24.72v24.72H288zm48 0h24.72v24.72H336z"/><path d="M360 432h24.72v24.72H360zm48 0h24.72v24.72H408z"/><path d="M432 432h24.72v24.72H432zm48 0h24.72v24.72H480z"/><path d="M504 432h24.72v24.72H504z"/><path d="M528 432h24.72v24.72H528zm120 0h24.72v24.72H648zm48 0h24.72v24.72H696z"/><path d="M720 432h24.72v24.72H720zm72 0h24.72v24.72H792z"/><path d="M816 432h24.72v24.72H816zM48 456h24.72v24.72H48z"/><path d="M72 456h24.72v24.72H72z"/><path d="M96 456h24.72v24.72H96zm48 0h24.72v24.72H144zm96 0h24.72v24.72H240z"/><path d="M264 456h24.72v24.72H264z"/><path d="M288 456h24.72v24.72H288z"/><path d="M312 456h24.72v24.72H312z"/><path d="M336 456h24.72v24.72H336z"/><path d="M360 456h24.72v24.72H360zm48 0h24.72v24.72H408zm48 0h24.72v24.72H456z"/><path d="M480 456h24.72v24.72H480zm48 0h24.72v24.72H528z"/><path d="M552 456h24.72v24.72H552zm48 0h24.72v24.72H600z"/><path d="M624 456h24.72v24.72H624z"/><path d="M648 456h24.72v24.72H648z"/><path d="M672 456h24.72v24.72H672zm144 0h24.72v24.72H816zM48 480h24.72v24.72H48z"/><path d="M72 480h24.72v24.72H72zm96 0h24.72v24.72H168z"/><path d="M192 480h24.72v24.72H192z"/><path d="M216 480h24.72v24.72H216z"/><path d="M240 480h24.72v24.72H240z"/><path d="M264 480h24.72v24.72H264z"/><path d="M288 480h24.72v24.72H288z"/><path d="M312 480h24.72v24.72H312z"/><path d="M336 480h24.72v24.72H336zm144 0h24.72v24.72H480zm168 0h24.72v24.72H648z"/><path d="M672 480h24.72v24.72H672z"/><path d="M696 480h24.72v24.72H696zm72 0h24.72v24.72H768z"/><path d="M792 480h24.72v24.72H792zM48 504h24.72v24.72H48z"/><path d="M72 504h24.72v24.72H72zm48 0h24.72v24.72H120zm96 0h24.72v24.72H216zm48 0h24.72v24.72H264zm48 0h24.72v24.72H312z"/><path d="M336 504h24.72v24.72H336zm72 0h24.72v24.72H408zm48 0h24.72v24.72H456zm48 0h24.72v24.72H504zm48 0h24.72v24.72H552z"/><path d="M576 504h24.72v24.72H576z"/><path d="M600 504h24.72v24.72H600z"/><path d="M624 504h24.72v24.72H624z"/><path d="M648 504h24.72v24.72H648z"/><path d="M672 504h24.72v24.72H672zm72 0h24.72v24.72H744z"/><path d="M768 504h24.72v24.72H768z"/><path d="M792 504h24.72v24.72H792zM72 528h24.72v24.72H72z"/><path d="M96 528h24.72v24.72H96zm96 0h24.72v24.72H192zm120 0h24.72v24.72H312zm48 0h24.72v24.72H360zm72 0h24.72v24.72H432z"/><path d="M456 528h24.72v24.72H456z"/><path d="M480 528h24.72v24.72H480zm96 0h24.72v24.72H576zm48 0h24.72v24.72H624zm72 0h24.72v24.72H696z"/><path d="M720 528h24.72v24.72H720z"/><path d="M744 528h24.72v24.72H744zm72 0h24.72v24.72H816zM48 552h24.72v24.72H48zm48 0h24.72v24.72H96zm48 0h24.72v24.72H144z"/><path d="M168 552h24.72v24.72H168zm72 0h24.72v24.72H240z"/><path d="M264 552h24.72v24.72H264zm48 0h24.72v24.72H312zm48 0h24.72v24.72H360z"/><path d="M384 552h24.72v24.72H384zm72 0h24.72v24.72H456zm48 0h24.72v24.72H504zm312 0h24.72v24.72H816zM48 576h24.72v24.72H48zm48 0h24.72v24.72H96zm48 0h24.72v24.72H144z"/><path d="M168 576h24.72v24.72H168z"/><path d="M192 576h24.72v24.72H192zm72 0h24.72v24.72H264zm48 0h24.72v24.72H312zm48 0h24.72v24.72H360zm48 0h24.72v24.72H408zm120 0h24.72v24.72H528z"/><path d="M552 576h24.72v24.72H552z"/><path d="M576 576h24.72v24.72H576z"/><path d="M600 576h24.72v24.72H600z"/><path d="M624 576h24.72v24.72H624zm72 0h24.72v24.72H696zm48 0h24.72v24.72H744z"/><path d="M768 576h24.72v24.72H768z"/><path d="M792 576h24.72v24.72H792zM48 600h24.72v24.72H48zm48 0h24.72v24.72H96z"/><path d="M120 600h24.72v24.72H120zm120 0h24.72v24.72H240z"/><path d="M264 600h24.72v24.72H264z"/><path d="M288 600h24.72v24.72H288z"/><path d="M312 600h24.72v24.72H312zm72 0h24.72v24.72H384z"/><path d="M408 600h24.72v24.72H408zm48 0h24.72v24.72H456z"/><path d="M480 600h24.72v24.72H480z"/><path d="M504 600h24.72v24.72H504zm48 0h24.72v24.72H552zm48 0h24.72v24.72H600zm144 0h24.72v24.72H744z"/><path d="M768 600h24.72v24.72H768z"/><path d="M792 600h24.72v24.72H792z"/><path d="M816 600h24.72v24.72H816zM48 624h24.72v24.72H48zm120 0h24.72v24.72H168z"/><path d="M192 624h24.72v24.72H192z"/><path d="M216 624h24.72v24.72H216z"/><path d="M240 624h24.72v24.72H240z"/><path d="M264 624h24.72v24.72H264zm96 0h24.72v24.72H360zm96 0h24.72v24.72H456z"/><path d="M480 624h24.72v24.72H480z"/><path d="M504 624h24.72v24.72H504zm72 0h24.72v24.72H576z"/><path d="M600 624h24.72v24.72H600z"/><path d="M624 624h24.72v24.72H624z"/><path d="M648 624h24.72v24.72H648z"/><path d="M672 624h24.72v24.72H672z"/><path d="M696 624h24.72v24.72H696z"/><path d="M720 624h24.72v24.72H720z"/><path d="M744 624h24.72v24.72H744zm48 0h24.72v24.72H792z"/><path d="M816 624h24.72v24.72H816zm-576 24h24.72v24.72H240z"/><path d="M264 648h24.72v24.72H264zm48 0h24.72v24.72H312z"/><path d="M336 648h24.72v24.72H336zm48 0h24.72v24.72H384z"/><path d="M408 648h24.72v24.72H408z"/><path d="M432 648h24.72v24.72H432z"/><path d="M456 648h24.72v24.72H456zm48 0h24.72v24.72H504z"/><path d="M528 648h24.72v24.72H528z"/><path d="M552 648h24.72v24.72H552z"/><path d="M576 648h24.72v24.72H576zm48 0h24.72v24.72H624zm96 0h24.72v24.72H720z"/><path d="M744 648h24.72v24.72H744zm72 0h24.72v24.72H816zm-552 24h24.72v24.72H264zm72 0h24.72v24.72H336zm72 0h24.72v24.72H408zm120 0h24.72v24.72H528z"/><path d="M552 672h24.72v24.72H552zm48 0h24.72v24.72H600z"/><path d="M624 672h24.72v24.72H624zm48 0h24.72v24.72H672zm48 0h24.72v24.72H720z"/><path d="M744 672h24.72v24.72H744zm48 0h24.72v24.72H792zm-480 24h24.72v24.72H312zm48 0h24.72v24.72H360zm48 0h24.72v24.72H408z"/><path d="M432 696h24.72v24.72H432zm96 0h24.72v24.72H528z"/><path d="M552 696h24.72v24.72H552z"/><path d="M576 696h24.72v24.72H576z"/><path d="M600 696h24.72v24.72H600z"/><path d="M624 696h24.72v24.72H624zm96 0h24.72v24.72H720z"/><path d="M744 696h24.72v24.72H744z"/><path d="M768 696h24.72v24.72H768z"/><path d="M792 696h24.72v24.72H792z"/><path d="M816 696h24.72v24.72H816zm-576 24h24.72v24.72H240z"/><path d="M264 720h24.72v24.72H264zm96 0h24.72v24.72H360z"/><path d="M384 720h24.72v24.72H384zm48 0h24.72v24.72H432zm120 0h24.72v24.72H552zm72 0h24.72v24.72H624z"/><path d="M648 720h24.72v24.72H648z"/><path d="M672 720h24.72v24.72H672z"/><path d="M696 720h24.72v24.72H696z"/><path d="M720 720h24.72v24.72H720z"/><path d="M744 720h24.72v24.72H744zm48 0h24.72v24.72H792z"/><path d="M816 720h24.72v24.72H816zm-576 24h24.72v24.72H240z"/><path d="M264 744h24.72v24.72H264zm48 0h24.72v24.72H312z"/><path d="M336 744h24.72v24.72H336z"/><path d="M360 744h24.72v24.72H360zm48 0h24.72v24.72H408z"/><path d="M432 744h24.72v24.72H432z"/><path d="M456 744h24.72v24.72H456zm48 0h24.72v24.72H504zm72 0h24.72v24.72H576zm48 0h24.72v24.72H624z"/><path d="M648 744h24.72v24.72H648zm72 0h24.72v24.72H720zm48 0h24.72v24.72H768z"/><path d="M792 744h24.72v24.72H792zm-552 24h24.72v24.72H240zm48 0h24.72v24.72H288zm72 0h24.72v24.72H360z"/><path d="M384 768h24.72v24.72H384z"/><path d="M408 768h24.72v24.72H408z"/><path d="M432 768h24.72v24.72H432z"/><path d="M456 768h24.72v24.72H456zm72 0h24.72v24.72H528z"/><path d="M552 768h24.72v24.72H552zm48 0h24.72v24.72H600z"/><path d="M624 768h24.72v24.72H624z"/><path d="M648 768h24.72v24.72H648z"/><path d="M672 768h24.72v24.72H672zm72 0h24.72v24.72H744z"/><path d="M768 768h24.72v24.72H768zm-480 24h24.72v24.72H288zm120 0h24.72v24.72H408zm48 0h24.72v24.72H456zm48 0h24.72v24.72H504z"/><path d="M528 792h24.72v24.72H528z"/><path d="M552 792h24.72v24.72H552zm96 0h24.72v24.72H648zm48 0h24.72v24.72H696zm48 0h24.72v24.72H744z"/><path d="M768 792h24.72v24.72H768zm-456 24h24.72v24.72H312z"/><path d="M336 816h24.72v24.72H336z"/><path d="M360 816h24.72v24.72H360zm48 0h24.72v24.72H408z"/><path d="M432 816h24.72v24.72H432z"/><path d="M456 816h24.72v24.72H456zm96 0h24.72v24.72H552zm48 0h24.72v24.72H600z"/><path d="M624 816h24.72v24.72H624z"/><path d="M648 816h24.72v24.72H648zm144 0h24.72v24.72H792zM48 48v168h168V48H48zm144 144H72V72h120v120zM672 48v168h168V48H672zm144 144H696V72h120v120zM48 672v168h168V672H48zm144 144H72V696h120v120z"/><path d="M96 96h72v72H96zm624 0h72v72h-72zM96 720h72v72H96z"/></svg>