<svg width="38" height="38" fill="none" xmlns="http://www.w3.org/2000/svg"><path fill-rule="evenodd" clip-rule="evenodd" d="M13.142 5.146h11.716c1.424 0 2.61 0 3.552.127.992.133 1.89.427 2.612 1.147.72.722 1.014 1.62 1.148 2.613.127.942.127 2.13.127 3.551v11.533l2.395 2.472.005.006.013.011.01.013.01.01.016.015.016.018.008.008.013.014.014.016.013.016.019.023c.589.681 1.113 1.7 1.184 2.719v.006l.005.037v.02l.003.023v.181c0 .206 0 .506-.008.634a4.354 4.354 0 01-4.07 4.069c-.139.01-.292.01-.492.01h-24.9c-.2 0-.354 0-.492-.01a4.354 4.354 0 01-4.072-4.07c-.007-.21-.009-.42-.006-.63v-.184l.001-.023v-.019l.005-.038v-.006c.073-1.018.597-2.036 1.186-2.719l.019-.023.013-.016.016-.016.01-.014.007-.008.017-.016.016-.018.008-.009.013-.013.01-.01.007-.007 2.396-2.472V12.584c0-1.421 0-2.609.126-3.55.133-.994.428-1.892 1.148-2.612.722-.722 1.62-1.016 2.613-1.15.942-.126 2.126-.126 3.55-.126zm-5.748 20.64l-2.397 2.475c-.36.4-.624.991-.641 1.389v.353l.001.206a1.98 1.98 0 001.853 1.849c.052.005.123.005.378.005h24.824c.253 0 .326 0 .38-.005a1.98 1.98 0 001.85-1.85v-.055l.002-.407v-.095c-.017-.399-.282-.99-.643-1.39l-2.397-2.475H7.394zm22.526-2.375V12.667c0-1.527-.003-2.553-.106-3.317-.098-.73-.267-1.044-.475-1.25-.207-.205-.518-.375-1.247-.475-.765-.101-1.791-.104-3.318-.104H13.226c-1.527 0-2.553.003-3.317.106-.73.098-1.044.268-1.25.475-.206.207-.377.518-.475 1.248-.103.764-.104 1.79-.104 3.317V23.41h21.84zM3.69 28.538l-.048-.019.014.008.035.011zm10.164.754a1.188 1.188 0 011.188-1.188h7.916a1.187 1.187 0 010 2.375h-7.916a1.187 1.187 0 01-1.188-1.187z" fill="#000"/><path d="M20.188 10.688a1.188 1.188 0 11-2.376 0 1.188 1.188 0 012.375 0z" fill="#000"/></svg>