<svg width="46" height="46" fill="none" xmlns="http://www.w3.org/2000/svg"><g clip-path="url(#clip0_12_2)"><path d="M41.61 38.89l-2.72 2.72a1.916 1.916 0 01-2.703 0l-22.77-22.73a7.282 7.282 0 01-1.917.287A7.667 7.667 0 014.255 9.008l4.868 4.869 1.016-1.016 2.722-2.722 1.016-1.016-4.869-4.868A7.666 7.666 0 0119.167 11.5a7.282 7.282 0 01-.288 1.917l22.732 22.77a1.917 1.917 0 010 2.702zM4.39 36.186a1.917 1.917 0 000 2.702l2.72 2.722a1.917 1.917 0 002.703 0l10.484-10.465-5.424-5.424m23.46-21.889l-7.666 3.834V11.5l-4.16 4.16 3.834 3.832 4.159-4.159h3.833l3.834-7.666-3.834-3.834z" fill="#0288D1"/></g><defs><clipPath id="clip0_12_2"><path fill="#fff" d="M0 0h46v46H0z"/></clipPath></defs></svg>