<svg width="104" height="104" fill="none" xmlns="http://www.w3.org/2000/svg"><path d="M52 5.417C26.273 5.417 5.417 26.273 5.417 52c0 25.727 20.856 46.583 46.583 46.583 25.727 0 46.583-20.856 46.583-46.583C98.583 26.273 77.727 5.417 52 5.417zM11.917 52a40.084 40.084 0 1170.555 26.043 20.974 20.974 0 00-5.07-8.814c-3.389-3.523-7.627-5.572-11.301-6.716-2.713-.845-5.27.13-6.951 1.27-1.56 1.048-4.073 2.3-7.15 2.3s-5.59-1.256-7.15-2.3c-1.681-1.136-4.238-2.115-6.95-1.27-3.68 1.144-7.913 3.193-11.302 6.716a20.974 20.974 0 00-5.07 8.81A39.867 39.867 0 0111.917 52zM27.14 83.443c.329-4.381 1.993-7.471 4.147-9.711 2.396-2.496 5.546-4.078 8.545-5.014a.867.867 0 01.446.013c.335.091.652.24.936.438 2.171 1.464 5.954 3.414 10.786 3.414s8.615-1.95 10.786-3.414c.285-.197.601-.344.936-.434a.868.868 0 01.446-.017c2.999.936 6.149 2.518 8.545 5.014 2.154 2.24 3.814 5.33 4.147 9.71A39.867 39.867 0 0152 92.084a39.867 39.867 0 01-24.86-8.64zm15.11-40.11c0-5.416 4.203-9.75 9.75-9.75s9.75 4.334 9.75 9.75c0 5.417-4.203 9.75-9.75 9.75s-9.75-4.333-9.75-9.75zM52 27.083a16.12 16.12 0 00-16.25 16.25A16.119 16.119 0 0052 59.583a16.119 16.119 0 0016.25-16.25A16.12 16.12 0 0052 27.083z" fill="#000"/></svg>