<svg xmlns="http://www.w3.org/2000/svg" version="1.1" xmlns:xlink="http://www.w3.org/1999/xlink" xmlns:svgjs="http://svgjs.dev/svgjs" width="70" height="70"><svg width="70" height="70" viewBox="0 0 70 70" fill="none" xmlns="http://www.w3.org/2000/svg">
<g clip-path="url(#clip0_5_12)">
<path d="M35.0001 70.0001C54.3301 70.0001 70.0001 54.3301 70.0001 35.0001C70.0001 15.6701 54.3301 0 35.0001 0C15.6701 0 0 15.6701 0 35.0001C0 54.3301 15.6701 70.0001 35.0001 70.0001Z" fill="#8FC555"></path>
<path d="M61.1453 17.1971H8.8549C8.10925 17.1971 7.45679 17.803 7.45679 18.5952V53.6419H62.4968V18.5952C62.5434 17.803 61.8909 17.1971 61.1453 17.1971Z" fill="#DEDEDF"></path>
<path d="M60.1199 19.7603H9.88013V51.032H60.1199V19.7603Z" fill="#6EB1E1"></path>
<path d="M60.1199 50.1465H9.88013V51.0785H60.1199V50.1465Z" fill="#5EA6D3"></path>
<path d="M1.81763 53.5953C1.81763 57.3237 4.84696 60.353 8.57535 60.353H61.425C65.1534 60.353 68.1827 57.3237 68.1827 53.5953H1.81763Z" fill="#F1F3F7"></path>
<path d="M27.4035 53.5953C27.4035 54.807 28.3823 55.7856 29.5939 55.7856H40.4527C41.6645 55.7856 42.6431 54.8069 42.6431 53.5953H27.4035Z" fill="#BDBDBE"></path>
<path d="M12.1172 57.1371H8.2956C7.9693 57.1371 7.73633 57.3701 7.73633 57.6964C7.73633 58.0227 7.9693 58.2557 8.2956 58.2557H12.1172C12.4435 58.2557 12.6764 58.0227 12.6764 57.6964C12.6764 57.3703 12.3967 57.1371 12.1172 57.1371Z" fill="#BDBDBE"></path>
<path d="M61.7043 57.1371H57.8828C57.5566 57.1371 57.3235 57.3701 57.3235 57.6964C57.3235 58.0227 57.5565 58.2557 57.8828 58.2557H61.7043C62.0306 58.2557 62.2636 58.0227 62.2636 57.6964C62.2636 57.3703 62.0306 57.1371 61.7043 57.1371Z" fill="#BDBDBE"></path>
<path d="M51.265 18.4554L48.1425 17.6166C47.8162 16.2651 47.3036 15.0067 46.6046 13.8882L48.2358 11.092C48.4222 10.7657 48.3756 10.3929 48.096 10.1132L45.7657 7.78293C45.4862 7.50337 45.1133 7.45663 44.787 7.64315L41.9908 9.27437C40.8256 8.57531 39.5673 8.06264 38.2624 7.73648L37.4235 4.61395C37.3303 4.24106 37.004 4.00809 36.6313 4.00809H33.369C32.9961 4.00809 32.6699 4.24106 32.5767 4.61395L31.7379 7.73648C30.3864 8.06277 29.128 8.57531 28.0095 9.27437L25.2133 7.64315C24.887 7.45677 24.5142 7.50337 24.2345 7.78293L21.9042 10.1132C21.6247 10.3928 21.5779 10.7657 21.7645 11.092L23.3957 13.8882C22.6966 15.0533 22.1839 16.3117 21.8578 17.6166L18.7353 18.4554C18.3624 18.5486 18.1294 18.8749 18.1294 19.2477V22.51C18.1294 22.8829 18.3624 23.209 18.7353 23.3022L21.8578 24.1411C22.1841 25.4926 22.6966 26.7509 23.3957 27.8694L21.7645 30.6657C21.5781 30.9918 21.6247 31.3647 21.9042 31.6444L24.2345 33.9747C24.5141 34.2543 24.887 34.301 25.2133 34.1145L28.0095 32.4833C29.1746 33.1823 30.433 33.695 31.7379 34.0212L32.5767 37.1437C32.6699 37.5166 32.9962 37.7495 33.369 37.7495H36.6313C37.0042 37.7495 37.3303 37.5166 37.4235 37.1437L38.2624 34.0212C39.6139 33.6949 40.8722 33.1823 41.9908 32.4833L44.787 34.1145C45.1133 34.3009 45.486 34.2543 45.7657 33.9747L48.096 31.6444C48.3756 31.3649 48.4223 30.992 48.2358 30.6657L46.6046 27.8694C47.3036 26.7043 47.8163 25.446 48.1425 24.1411L51.265 23.3022C51.6379 23.209 51.8709 22.8827 51.8709 22.51V19.2477C51.8709 18.8749 51.6379 18.5486 51.265 18.4554ZM35.0001 26.8908C31.6912 26.8908 28.9881 24.1878 28.9881 20.8789C28.9881 17.57 31.6912 14.867 35.0001 14.867C38.309 14.867 41.012 17.57 41.012 20.8789C41.012 24.1878 38.309 26.8908 35.0001 26.8908Z" fill="#4F5565"></path>
<path d="M35.0001 9.69373C28.8016 9.69373 23.8151 14.727 23.8151 20.8788C23.8151 27.0772 28.8484 32.0638 35.0001 32.0638C41.1985 32.0638 46.1851 27.0305 46.1851 20.8788C46.1851 14.6804 41.1984 9.69373 35.0001 9.69373ZM35.0001 26.8908C31.6912 26.8908 28.9882 24.1878 28.9882 20.8789C28.9882 17.57 31.6912 14.867 35.0001 14.867C38.309 14.867 41.012 17.57 41.012 20.8789C41.012 24.1878 38.309 26.8908 35.0001 26.8908Z" fill="#646B79"></path>
<path d="M35.0001 12.956C30.6192 12.956 27.0773 16.4981 27.0773 20.8788C27.0773 25.2595 30.6193 28.8015 35.0001 28.8015C39.3808 28.8015 42.9228 25.2595 42.9228 20.8788C42.9228 16.4981 39.3809 12.956 35.0001 12.956ZM35.0001 26.8908C31.6912 26.8908 28.9881 24.1878 28.9881 20.8789C28.9881 17.57 31.6912 14.867 35.0001 14.867C38.309 14.867 41.012 17.57 41.012 20.8789C41.012 24.1878 38.309 26.8908 35.0001 26.8908Z" fill="#414753"></path>
</g>
<defs>
<clipPath id="SvgjsClipPath1001">
<rect width="70" height="70" fill="white"></rect>
</clipPath>
</defs>
</svg><style>@media (prefers-color-scheme: light) { :root { filter: none; } }
@media (prefers-color-scheme: dark) { :root { filter: none; } }
</style></svg>